<?xml version="1.0" encoding="UTF-8"?>
<svg id="Layer_1" data-name="Layer 1" xmlns="http://www.w3.org/2000/svg" viewBox="0 0 240 140">
  <path d="M74.75,75.66l2.04-5.66,2.08,5.66h-4.13,0ZM84.13,78.51l-5.45-12.72s-.03-.03-.06-.03h-2.63s-.05.01-.06.03l-5.28,12.7c-.71,1.69-1.62,2.35-2.08,2.59-.06.03-.03.12.03.12h5.25c.07,0,.09-.1.03-.12-.35-.16-.8-.48-.74-1,.03-.33.15-.67.35-1.2l.38-.98,5.87-.05.39.98c.22.58.37,1.02.44,1.27.15.5-.3.82-.64.98-.06.03-.04.12.03.12h6.27c.07,0,.09-.1.03-.12-.5-.24-1.46-.89-2.15-2.57M197.9,75.66l2.43-6.89,2.43,6.89h-4.86ZM207.9,78.51l-5.33-12.72s-.03-.03-.06-.03h-3.39s-.05.01-.06.03l-5.16,12.7c-.7,1.69-1.59,2.35-2.04,2.59-.06.03-.03.12.03.12h5.13c.07,0,.09-.1.03-.12-.34-.16-.78-.48-.72-1,.03-.33.15-.67.34-1.2l.37-.98,6.56-.05.38.98c.21.58.36,1.02.43,1.27.14.5-.3.82-.62.98-.06.03-.04.12.03.12h6.14c.07,0,.09-.1.03-.12-.48-.24-1.43-.89-2.1-2.57M72.34,65.97c.06-.03.03-.11-.03-.11h-5.41c-.06,0-.09.09-.03.12.32.17.77.51.77.96s-.06.56-.25,1.05l-3.12,7.75-3.07-7.68c-.24-.58-.42-.97-.42-1.27s.37-.65.7-.8c.06-.03.04-.12-.03-.12h-6.22c-.06,0-.09.08-.03.11.44.25,1.41.97,2.1,2.63l5.25,12.67s.03.04.06.04c.88,0,1.5-.01,2.38,0,.03,0,.05-.01.06-.04l5.22-12.55c.71-1.79,1.63-2.5,2.05-2.75M28.4,76.83c-1.22,1.41-3.05,2.24-4.74,2.24-3.09,0-4.71-2.46-4.71-5.65s1.67-5.54,4.61-5.54c1.95,0,3.67,1.01,4.5,3.01.03.06.12.05.12-.02v-4.23c0-.1-.05-.19-.14-.22-1.06-.49-2.77-.82-4.22-.82-5.87,0-8.83,4.08-8.83,8.25s2.62,7.61,8.2,7.61c2.13,0,4.11-.85,5.24-2.05.04-.05.07-.11.07-.17v-2.37c0-.06-.07-.08-.1-.04M46.45,65.96s.03-.11-.03-.11h-5.75c-.06,0-.08.08-.03.11.36.24,1.09.89,1.09,2.26v4.14s-6.43.02-6.43.02l.04-4.08c0-1.43.73-2.1,1.09-2.34.05-.03.03-.11-.03-.11h-5.89c-.06,0-.08.08-.03.11.37.24,1.04.92,1.04,2.43v10.45c0,1.45-.67,2.04-1.05,2.25-.06.03-.03.11.03.11h5.91c.06,0,.08-.08.03-.11-.38-.23-1.1-.86-1.1-2.49l-.02-3.99,6.44-.02-.02,3.97c0,1.67-.71,2.31-1.09,2.53-.06.03-.03.11.03.11h5.75c.06,0,.08-.08.03-.11-.37-.21-.9-.77-.9-2.32l.03-10.4c0-1.49.53-2.17.88-2.4M54.61,65.96s.03-.11-.03-.11h-6c-.06,0-.08.08-.03.11.37.24,1.15.92,1.15,2.43v10.45c0,1.45-.77,2.03-1.15,2.25-.06.03-.03.11.03.11h6c.06,0,.08-.08.03-.11-.38-.23-1.1-.86-1.1-2.48v-10.3c.01-1.43.75-2.1,1.11-2.33M93.7,71.83c-1.57-.75-2.91-1.16-2.95-2.35-.03-.86.62-1.65,2.21-1.65,1.59-.01,3.1.68,3.88,2.5.03.06.12.05.12-.02v-3.54c0-.09-.04-.17-.12-.22-.91-.55-2.29-.94-3.77-.93-3.37.01-5.86,1.8-5.77,4.57.07,2.19,1.67,3.5,3.5,4.37,1.94.92,3.68,1.35,3.64,2.91-.03,1.09-1.01,1.76-2.51,1.77-1.86,0-3.68-.92-4.58-3.36-.03-.06-.12-.05-.12.02v4.31c0,.09.05.18.13.23,1.17.64,2.83,1.05,4.61,1.04,3.5-.02,6.12-1.63,6.12-4.6s-2.32-4.06-4.38-5.04M224.88,77.95c-.22.38-.82,1.05-2.32,1.05h-5.44v-4.38s-.03-2.23-.03-2.23l.04-4.08c0-1.43.76-2.1,1.13-2.33.05-.03.03-.11-.03-.11h-6.2c-.06,0-.09.08-.03.11.39.24,1.19.92,1.19,2.43v10.45c0,1.45-.8,2.03-1.18,2.25-.06.03-.03.11.03.11h12.9s.06-.03.06-.06v-3.16c0-.06-.08-.08-.12-.03M149.05,73.2h-1.25v-5.14h1.33c1.26,0,2.62.59,2.62,2.55s-1.47,2.58-2.71,2.58M157.92,81.08c-.52-.24-1.45-1.09-2.39-2.33-.94-1.25-1.91-3.36-3.43-4.15,1.7-.37,3.76-1.97,3.76-4.23s-2.59-4.51-5.44-4.51h-7.71c-.06,0-.09.08-.03.11.39.24,1.12.92,1.12,2.43v10.45c0,1.45-.73,2.03-1.12,2.25-.06.03-.03.11.03.11h6.14c.06,0,.08-.08.03-.11-.35-.19-.94-.71-1.08-1.92v-4.14h.62c1.14.69,2.32,2.82,3.23,4.37,1.02,1.72,1.34,1.8,1.34,1.8h4.88c.08,0,.1-.1.03-.12M173.23,77.95c-.22.38-.83,1.05-2.34,1.05h-5.42v-5.05s2.5,0,2.5,0c1.51,0,2.12.67,2.34,1.05.03.06.12.03.12-.03v-4.24c0-.06-.08-.08-.12-.03-.22.38-.83,1.05-2.34,1.05h-2.51s.05-3.6.06-3.68h4.73c1.51,0,2.12.67,2.34,1.05.03.06.12.03.12-.03v-3.16s-.03-.06-.06-.06h-12.28c-.06,0-.09.08-.03.11.39.24,1.2.92,1.2,2.43v10.45c0,1.45-.8,2.03-1.19,2.25-.06.03-.03.11.03.11h12.93s.06-.03.06-.06v-3.16c0-.06-.08-.08-.12-.03M190.81,73.69h-6.07c-.06,0-.08.08-.03.11.38.24,1.16.92,1.16,2.43v2.68c-.44.1-.88.16-1.31.16-3.12,0-5.33-2.46-5.33-5.65s2.25-5.54,5.22-5.54c1.97,0,3.99,1.01,4.83,3.02.03.06.12.05.12-.02v-4.23c0-.09-.05-.18-.14-.22-1.07-.48-3.08-.82-4.54-.82-5.93,0-9.49,4.08-9.49,8.25s3.22,7.61,8.85,7.61c2.15,0,4.43-.85,5.57-2.05.04-.04.06-.1.06-.16v-3.12c0-1.43.75-2.1,1.11-2.34.05-.03.03-.11-.03-.11M129.49,76.17c-.09.14-.19.28-.29.42-.45.62-.95,1.21-1.5,1.76l-.35.35c-2.04,1.97-4.58,3.49-6.89,4.31-.16.06-.31.11-.47.16-.16-.05-.31-.1-.47-.16-2.31-.82-4.85-2.34-6.89-4.31-.12-.12-.24-.23-.35-.35-.54-.55-1.04-1.14-1.5-1.77l-.29-.42c-1.11-1.67-1.81-3.54-1.81-5.5,0-3.04,1.72-5.34,3.83-5.34s3.06.9,4.58,2.42c.18.17.91.91.91.91l.35.35c-.11.12-4.46,4.46-6.65,6.65-.04.04-.05.11-.01.16.37.52.82,1.05,1.34,1.59.05.05.13.05.18,0l6.77-6.77,6.77,6.77c.05.05.13.05.18,0,.48-.5.93-1.03,1.34-1.59.03-.05.03-.12-.01-.16l-6.65-6.65.35-.35.91-.91c1.52-1.52,2.94-2.42,4.58-2.42s3.83,2.3,3.83,5.34-.7,3.83-1.81,5.5M112.56,59.24l1.03,1.25-1.03,1.25-1.03-1.25,1.03-1.25ZM115.1,62.22c1.14-.26,2.78-.51,4.9-.51s3.76.25,4.9.51c.1.02.13.14.06.21l-4.97,4.96-4.96-4.96s-.05-.13,0-.17c.02-.02.04-.03.06-.03M116,58.76l.84,1.02-.84,1.02-.84-1.02.84-1.02ZM120,57.06l1.36,1.13-1.36,2.28-1.36-2.28,1.36-1.13ZM124,58.76l.84,1.02-.84,1.02-.84-1.02.84-1.02ZM127.44,59.24l1.02,1.25-1.02,1.25-1.03-1.25,1.03-1.25ZM134.89,71.09c0-3.14-1.84-6.23-4.58-7.47-.73-.37-.98-.98-.71-1.63l1.85-4.55c.06-.16-.1-.3-.25-.24-1.2.52-2.5.79-3.82.79-2.84,0-5.48-1.35-7.24-3.32-.07-.08-.18-.08-.26-.02,0,0-.01.01-.02.02-1.76,1.97-4.4,3.32-7.24,3.32s-2.65-.28-3.82-.79c-.15-.07-.31.08-.25.24l1.85,4.55c.26.65.01,1.26-.71,1.63-2.74,1.24-4.58,4.33-4.58,7.47s1.33,4.97,3.34,7.13c.11.12.23.24.35.36-.09.09-.48.48-.77.77-.07.07-.1.16-.1.25v1.11c0,.19.16.35.35.35h1.15c.09,0,.18-.04.25-.1l.82-.82c.13.11.26.21.39.32,2.64,2.1,5.8,3.78,8.62,4.76l.5.17.5-.17c2.83-.98,5.98-2.65,8.62-4.76.13-.1.26-.21.39-.32l.82.82c.06.06.15.1.25.1h1.15c.19,0,.35-.16.35-.35v-1.11c0-.09-.04-.18-.1-.25l-.77-.77c.12-.12.23-.24.35-.36,2.01-2.16,3.34-4.61,3.34-7.13"/>
</svg>