<?xml version="1.0" encoding="UTF-8"?>
<svg id="Layer_1" data-name="Layer 1" xmlns="http://www.w3.org/2000/svg" viewBox="0 0 240 140">
  <path d="M32.57,68.57h8.8c-1.17,4-4.87,7.03-9.27,7.03-5.27,0-9.67-4.3-9.67-9.67s4.3-9.67,9.67-9.67c4,0,7.43,2.43,8.9,5.97h2.63c-1.57-4.87-6.17-8.4-11.54-8.4-6.63,0-12.1,5.47-12.1,12.1s5.47,12.1,12.1,12.1c3.8,0,7.33-1.97,9.37-4.7v4.2h2.23v-11.44h-11.14v2.47h0ZM47.8,54.6h2.43v22.87h-2.43v-22.87ZM119.02,54.6h2.43v22.87h-2.43v-22.87ZM62.84,75.9c-3.7,0-6.73-3.23-6.73-6.83s3.03-6.83,6.73-6.83,6.73,3.13,6.73,6.83c-.1,3.6-3.1,6.83-6.73,6.83M62.84,59.76c-5.07,0-9.17,4.1-9.17,9.17s4.1,9.17,9.17,9.17,9.17-4.1,9.17-9.17c-.07-5.07-4.17-9.17-9.17-9.17M83.94,75.9c-3.7,0-6.73-3.23-6.73-6.83s3.03-6.83,6.73-6.83,6.73,3.13,6.73,6.83c-.1,3.6-3.03,6.83-6.73,6.83M84.04,59.66c-2.73,0-5.17,1.17-6.83,3.13v-8.2h-2.43v22.87h2.43v-2.27c1.67,1.87,4.1,3.03,6.83,3.03,5.07,0,9.17-4.2,9.17-9.27s-4.1-9.3-9.17-9.3M105.61,75.9c-3.7,0-6.73-3.23-6.73-6.83s3.03-6.83,6.73-6.83,6.73,3.13,6.73,6.83c0,3.6-3,6.83-6.73,6.83M112.35,62.8c-1.67-1.97-4.2-3.13-6.93-3.13-5.17,0-9.27,4.2-9.27,9.27s4.2,9.27,9.27,9.27c2.73,0,5.27-1.17,6.93-3.13v2.33h2.43v-16.7h-2.43v2.1ZM184.93,52.26h4.3v4h-4.3v-4ZM130.05,54.6h-3.9v22.84h12.8v-3.6h-8.9v-19.24h0ZM184.93,59.5h4.3v17.97h-4.3v-17.97ZM149.85,74.33c-2.83,0-5.17-2.43-5.17-5.57s2.33-5.57,5.17-5.57,5.17,2.43,5.17,5.57c.03,3.13-2.33,5.57-5.17,5.57M149.85,59.4c-5.17,0-9.37,4.2-9.37,9.37s4.2,9.37,9.37,9.37,9.37-4.2,9.37-9.37-4.17-9.37-9.37-9.37M207,71.3c-.87,1.87-2.63,3.03-4.6,3.03-2.83,0-5.17-2.53-5.17-5.57,0-3.33,2.33-5.57,5.17-5.57,1.97,0,3.6,1.17,4.5,2.83h4.5c-1.17-3.8-4.8-6.63-9-6.63-5.17,0-9.37,4.2-9.37,9.37s4.2,9.37,9.37,9.37c4.3,0,8-2.93,9.07-6.93h-4.5l.03.1h0ZM170.69,83.7c-1.97,0-3.7-.97-4.87-2.53l-3.8,1.87c1.77,2.83,4.8,4.7,8.7,4.7,4.97,0,9.07-4,9.47-8.8h-4.2c-.43,2.73-2.57,4.77-5.3,4.77M170.86,74.43c-2.83,0-5.17-2.43-5.17-5.57s2.33-5.57,5.17-5.57,5.17,2.43,5.17,5.57c.03,3.13-2.23,5.57-5.17,5.57M176.43,61.33c-1.57-1.07-3.43-1.77-5.47-1.77-5.17,0-9.37,4.2-9.37,9.37s4.2,9.37,9.37,9.37,9.37-4.2,9.37-9.27v-9.57h-3.9v1.87ZM214.93,56.36c0-1.57,1.07-2.53,2.53-2.53s2.53,1.07,2.53,2.53-1.07,2.53-2.53,2.53-2.53-1.07-2.53-2.53ZM219.6,56.36c0-1.37-.87-2.23-2.13-2.23-1.17,0-2.13.87-2.13,2.23s.87,2.23,2.13,2.23c1.17-.1,2.13-.97,2.13-2.23ZM216.4,55h1.17c.5,0,.87.3.87.77,0,.3-.2.6-.5.6h0c.3.1.4.2.4.6s0,.6.1.7h-.5c-.1,0-.1-.3-.1-.6s-.2-.5-.5-.5h-.5v1.07h-.5v-2.63h.07ZM217.07,56.16h.6c.3,0,.5-.2.5-.4s-.1-.4-.4-.4h-.6v.77h-.1v.03Z"/>
</svg>